<svg width="377" height="377" viewBox="0 0 377 377" fill="none" xmlns="http://www.w3.org/2000/svg">
<path d="M26.0889 188.258C26.0889 277.824 98.696 350.431 188.261 350.431C277.827 350.431 350.434 277.824 350.434 188.258C350.434 98.693 277.827 26.0859 188.261 26.0859C98.696 26.0859 26.0889 98.693 26.0889 188.258Z" fill="white"/>
<path fill-rule="evenodd" clip-rule="evenodd" d="M0.482086 188.263C0.482086 291.97 84.5534 376.041 188.261 376.041C291.968 376.041 376.039 291.97 376.039 188.263C376.039 84.5557 291.968 0.484375 188.261 0.484375C84.5534 0.484375 0.482086 84.5557 0.482086 188.263ZM188.261 350.435C98.6953 350.435 26.0882 277.828 26.0882 188.263C26.0882 98.6976 98.6953 26.0905 188.261 26.0905C277.826 26.0905 350.433 98.6976 350.433 188.263C350.433 277.828 277.826 350.435 188.261 350.435Z" fill="#144A94"/>
<path d="M26.0873 188.261C26.0873 254.257 79.5872 307.756 145.583 307.756C211.578 307.756 265.078 254.257 265.078 188.261C265.078 122.266 211.578 68.7656 145.583 68.7656C79.5872 68.7656 26.0873 122.266 26.0873 188.261Z" fill="white"/>
<path fill-rule="evenodd" clip-rule="evenodd" d="M0.480469 188.266C0.480469 268.403 65.4446 333.367 145.582 333.367C225.719 333.367 290.684 268.403 290.684 188.266C290.684 108.128 225.719 43.1641 145.582 43.1641C65.4446 43.1641 0.480469 108.128 0.480469 188.266ZM145.582 307.761C79.5865 307.761 26.0866 254.261 26.0866 188.266C26.0866 122.27 79.5865 68.7702 145.582 68.7702C211.578 68.7702 265.077 122.27 265.077 188.266C265.077 254.261 211.578 307.761 145.582 307.761Z" fill="#144A94"/>
<path d="M26.0896 188.264C26.0896 230.689 60.4824 265.082 102.908 265.082C145.334 265.082 179.727 230.689 179.727 188.264C179.727 145.838 145.334 111.445 102.908 111.445C60.4824 111.445 26.0896 145.838 26.0896 188.264Z" fill="white"/>
<path fill-rule="evenodd" clip-rule="evenodd" d="M0.482742 188.261C0.482742 244.828 46.3398 290.685 102.907 290.685C159.475 290.685 205.332 244.828 205.332 188.261C205.332 131.693 159.475 85.8359 102.907 85.8359C46.3398 85.8359 0.482742 131.693 0.482742 188.261ZM102.907 265.079C60.4817 265.079 26.0889 230.686 26.0889 188.261C26.0889 145.835 60.4817 111.442 102.907 111.442C145.333 111.442 179.726 145.835 179.726 188.261C179.726 230.686 145.333 265.079 102.907 265.079Z" fill="#144A94"/>
<path d="M26.0841 188.267C26.0841 207.122 41.3698 222.408 60.2256 222.408C79.0815 222.408 94.3672 207.122 94.3672 188.267C94.3672 169.411 79.0815 154.125 60.2256 154.125C41.3698 154.125 26.0841 169.411 26.0841 188.267Z" fill="white"/>
<path fill-rule="evenodd" clip-rule="evenodd" d="M0.481155 188.263C0.481155 221.261 27.2311 248.011 60.2289 248.011C93.2266 248.011 119.977 221.261 119.977 188.263C119.977 155.266 93.2266 128.516 60.2289 128.516C27.2311 128.516 0.481155 155.266 0.481155 188.263ZM60.2289 222.405C41.373 222.405 26.0873 207.119 26.0873 188.263C26.0873 169.407 41.373 154.122 60.2289 154.122C79.0847 154.122 94.3704 169.407 94.3704 188.263C94.3704 207.119 79.0847 222.405 60.2289 222.405Z" fill="#144A94"/>
</svg>
